<?xml version="1.0" standalone="no"?>
<!DOCTYPE svg PUBLIC "-//W3C//DTD SVG 20010904//EN"
 "http://www.w3.org/TR/2001/REC-SVG-20010904/DTD/svg10.dtd">
<svg version="1.0" xmlns="http://www.w3.org/2000/svg"
 width="882.000000pt" height="882.000000pt" viewBox="0 0 882.000000 882.000000"
 preserveAspectRatio="xMidYMid meet">
<metadata>
Created by potrace 1.14, written by Peter Selinger 2001-2017
</metadata>
<g transform="translate(0.000000,882.000000) scale(0.100000,-0.100000)"
fill="#000000" stroke="none">
<path d="M4085 8772 c-3 -4 -35 -5 -70 -4 -36 1 -65 -1 -65 -6 0 -4 -17 -7
-37 -6 -21 1 -76 -4 -123 -12 -47 -8 -99 -14 -117 -14 -17 0 -34 -4 -37 -9 -3
-5 -16 -7 -28 -3 -11 3 -19 1 -16 -4 5 -8 -14 -11 -94 -14 -10 -1 -20 -5 -23
-10 -3 -5 -12 -7 -20 -3 -8 3 -15 0 -15 -7 0 -6 -4 -8 -10 -5 -5 3 -29 1 -52
-6 -24 -6 -56 -13 -73 -16 -16 -3 -31 -9 -33 -13 -2 -5 -10 -6 -18 -3 -8 3
-20 0 -28 -6 -7 -6 -16 -8 -19 -5 -3 3 -12 2 -19 -2 -7 -5 -22 -10 -33 -11
-11 -2 -27 -6 -35 -10 -20 -8 -27 -10 -46 -12 -8 0 -13 -5 -10 -10 4 -5 -3 -7
-14 -4 -12 3 -20 0 -20 -6 0 -7 -4 -9 -10 -6 -5 3 -16 3 -22 -2 -7 -4 -15 -8
-18 -8 -36 -6 -69 -19 -65 -26 4 -5 -1 -6 -9 -3 -8 3 -21 2 -28 -2 -7 -5 -17
-9 -23 -11 -34 -7 -104 -40 -98 -47 4 -4 0 -4 -9 -1 -9 4 -19 1 -23 -4 -3 -6
-11 -9 -16 -6 -5 4 -9 1 -9 -5 0 -6 -3 -9 -8 -6 -12 7 -103 -40 -94 -49 4 -5
1 -5 -6 -1 -17 10 -54 -3 -46 -16 4 -6 2 -8 -4 -5 -14 9 -43 -3 -36 -14 3 -5
-3 -6 -12 -2 -12 4 -15 3 -10 -5 5 -8 2 -10 -8 -6 -9 3 -16 1 -16 -6 0 -6 -4
-9 -9 -5 -5 3 -17 -3 -27 -12 -10 -10 -18 -16 -19 -13 0 3 -31 -10 -68 -29
-37 -19 -64 -38 -60 -44 3 -6 1 -7 -4 -4 -14 9 -75 -22 -68 -33 3 -5 -3 -8
-13 -7 -17 1 -92 -39 -92 -49 0 -3 5 -2 12 2 7 4 8 3 4 -5 -4 -6 -12 -9 -17
-6 -11 7 -70 -26 -64 -35 2 -4 -1 -7 -8 -7 -15 0 -207 -128 -227 -151 -8 -10
-19 -20 -25 -23 -5 -2 -9 -8 -7 -12 1 -5 -2 -6 -7 -3 -5 4 -15 0 -23 -7 -7 -8
-23 -19 -36 -26 -12 -6 -21 -16 -19 -22 1 -6 -6 -13 -17 -14 -10 -2 -26 -12
-36 -22 -10 -10 -34 -31 -54 -47 -19 -16 -33 -33 -29 -39 3 -6 1 -7 -5 -3 -14
8 -63 -34 -55 -47 3 -6 1 -7 -6 -3 -6 4 -14 0 -17 -8 -3 -9 -12 -16 -18 -16
-14 0 -69 -54 -66 -65 1 -4 -2 -10 -6 -13 -4 -4 -3 0 1 8 5 8 -5 2 -22 -14
-18 -17 -30 -34 -27 -38 3 -5 0 -7 -8 -6 -7 2 -12 -4 -10 -12 2 -8 0 -12 -4
-8 -9 10 -35 -12 -28 -23 3 -5 2 -8 -3 -7 -11 4 -113 -95 -113 -110 0 -7 -5
-12 -11 -12 -5 0 -7 -5 -3 -12 4 -6 3 -8 -3 -5 -13 8 -46 -27 -36 -37 5 -4 1
-6 -7 -4 -9 2 -14 -4 -14 -15 1 -10 -1 -16 -4 -13 -8 9 -33 -15 -26 -25 3 -5
0 -8 -8 -7 -7 2 -12 -5 -12 -14 1 -10 -1 -16 -5 -13 -4 2 -16 -6 -26 -18 -11
-12 -17 -23 -15 -23 3 -1 -6 -12 -20 -24 -14 -12 -18 -18 -10 -14 8 4 -1 -8
-20 -28 -53 -55 -62 -67 -55 -78 3 -6 -1 -10 -9 -10 -14 0 -20 -12 -17 -32 0
-5 -3 -7 -8 -5 -10 2 -57 -58 -67 -85 -4 -10 -11 -18 -16 -18 -5 0 -7 -4 -4
-9 3 -5 -1 -11 -9 -15 -9 -3 -12 -12 -8 -23 3 -10 2 -15 -2 -10 -11 9 -46 -43
-38 -56 3 -6 1 -7 -5 -3 -11 6 -28 -30 -23 -49 1 -5 -1 -7 -5 -3 -10 11 -46
-51 -38 -64 4 -7 2 -8 -4 -4 -14 8 -36 -30 -26 -46 4 -7 3 -8 -4 -4 -7 4 -12
1 -12 -7 0 -8 -7 -20 -15 -27 -9 -7 -14 -19 -11 -27 3 -8 1 -11 -4 -8 -9 5
-11 1 -10 -20 1 -3 -6 -13 -15 -22 -9 -8 -14 -22 -11 -30 4 -9 2 -11 -6 -7 -8
5 -9 2 -5 -10 5 -11 3 -15 -5 -10 -8 5 -9 2 -5 -10 4 -9 3 -15 -2 -12 -11 7
-23 -22 -14 -36 4 -7 1 -8 -7 -3 -10 6 -12 4 -7 -9 4 -9 3 -14 -2 -11 -9 5
-21 -18 -21 -38 1 -4 -6 -15 -15 -23 -8 -9 -13 -20 -10 -25 4 -5 1 -9 -5 -9
-7 0 -10 -7 -6 -15 3 -8 2 -15 -2 -15 -10 0 -32 -51 -26 -61 3 -5 0 -9 -6 -9
-7 0 -9 -7 -6 -16 3 -8 2 -13 -3 -10 -10 7 -21 -17 -21 -44 0 -10 -5 -20 -10
-22 -6 -2 -12 -13 -13 -26 0 -12 -6 -22 -11 -22 -5 0 -6 -3 -3 -7 4 -3 2 -12
-4 -19 -6 -8 -9 -21 -5 -29 3 -9 2 -13 -4 -10 -9 6 -14 -10 -13 -42 1 -7 -3
-10 -8 -7 -5 3 -10 -2 -10 -10 -2 -17 -5 -33 -9 -41 -1 -3 -3 -8 -5 -12 -1 -5
-5 -16 -10 -27 -4 -10 -8 -31 -9 -46 -1 -15 -5 -26 -10 -22 -5 3 -7 -5 -4 -16
4 -12 2 -20 -3 -16 -8 5 -13 -18 -12 -53 1 -7 -4 -13 -9 -13 -6 0 -8 -11 -6
-25 3 -13 2 -22 -2 -20 -10 6 -23 -43 -15 -55 4 -6 1 -10 -5 -10 -7 0 -10 -7
-7 -15 4 -8 1 -17 -4 -21 -6 -3 -9 -15 -6 -25 3 -10 1 -22 -5 -25 -5 -3 -8
-15 -5 -25 3 -10 1 -19 -5 -21 -5 -2 -10 -26 -11 -55 -1 -28 -5 -49 -10 -46
-7 4 -8 -3 -11 -72 0 -16 -4 -33 -9 -36 -4 -3 -8 -33 -10 -67 -1 -34 -5 -62
-8 -62 -6 0 -12 -56 -13 -132 -1 -25 -5 -44 -9 -41 -5 3 -7 -22 -5 -56 1 -33
0 -61 -4 -61 -5 0 -8 -137 -8 -305 0 -168 3 -305 8 -305 4 0 8 -30 8 -67 3
-115 5 -144 12 -139 4 2 7 -17 8 -42 0 -26 4 -65 8 -87 4 -22 7 -50 7 -62 0
-13 3 -23 7 -23 4 0 7 -12 6 -27 -1 -16 1 -32 4 -37 3 -5 7 -21 8 -35 3 -24
10 -60 14 -71 1 -3 1 -13 0 -24 -1 -10 2 -16 7 -13 4 3 9 -10 9 -28 1 -19 5
-42 9 -52 9 -21 11 -30 13 -61 1 -13 6 -21 11 -18 4 3 6 -5 4 -18 -3 -13 0
-27 6 -30 5 -4 8 -13 4 -21 -3 -8 -1 -15 4 -15 5 0 9 -8 10 -17 1 -10 4 -27 6
-38 3 -11 6 -26 6 -33 1 -7 5 -11 10 -8 5 4 7 -3 4 -14 -3 -12 0 -20 6 -20 7
0 9 -4 6 -10 -3 -5 -3 -16 2 -22 8 -14 10 -19 12 -44 0 -8 5 -13 10 -10 5 4 7
-3 4 -14 -3 -11 0 -20 6 -20 5 0 8 -7 5 -15 -4 -8 -1 -15 6 -15 6 0 8 -5 5
-10 -4 -6 -1 -17 5 -25 7 -8 9 -15 6 -15 -4 0 -1 -10 6 -22 12 -23 14 -29 17
-49 0 -5 5 -8 10 -5 5 4 7 -3 4 -14 -3 -11 0 -20 6 -20 6 0 10 -3 9 -7 -4 -19
15 -62 25 -56 6 3 7 1 3 -6 -9 -15 3 -53 15 -46 5 3 6 -1 3 -9 -3 -9 -1 -16 6
-16 6 0 8 -5 5 -10 -3 -6 -2 -10 4 -10 6 0 8 -6 5 -14 -3 -7 1 -20 9 -27 14
-14 17 -22 17 -40 0 -5 4 -7 10 -4 6 4 7 -1 3 -11 -5 -13 -3 -15 7 -9 8 5 11
4 7 -2 -8 -13 17 -65 27 -56 4 4 4 0 1 -9 -3 -8 1 -22 9 -31 8 -8 12 -17 9
-21 -4 -3 -1 -6 5 -6 7 0 11 -3 11 -7 -3 -20 2 -34 10 -29 5 3 8 -2 7 -12 0
-9 4 -16 11 -15 8 2 10 -4 6 -14 -5 -12 -3 -14 7 -8 8 5 11 4 7 -3 -9 -13 2
-44 13 -37 4 3 7 -3 6 -13 0 -9 5 -16 12 -14 8 1 11 -2 7 -8 -8 -13 26 -71 38
-63 4 3 7 -1 6 -8 -3 -19 11 -50 21 -44 4 3 7 -3 6 -13 0 -9 4 -16 10 -15 7 1
11 -5 10 -15 0 -9 4 -16 10 -15 7 1 11 -5 10 -15 0 -9 4 -16 10 -15 7 1 11 -5
10 -15 0 -9 4 -16 10 -15 7 1 11 -5 10 -15 0 -9 4 -16 11 -15 7 2 10 -4 7 -12
-4 -8 -2 -15 4 -15 5 0 12 -9 15 -21 4 -14 10 -18 19 -13 7 4 10 4 6 -1 -10
-11 11 -47 23 -40 5 4 9 3 8 -2 -4 -21 2 -34 13 -27 6 4 8 3 5 -3 -9 -14 22
-55 35 -47 6 4 8 3 5 -3 -8 -13 41 -79 56 -75 7 2 9 0 5 -4 -11 -10 32 -65 44
-58 7 4 8 2 4 -4 -4 -7 -2 -12 3 -12 6 0 10 -6 9 -13 -2 -6 3 -11 10 -9 6 1
11 -2 10 -7 -2 -5 5 -17 15 -28 9 -10 27 -29 38 -43 11 -14 17 -18 13 -10 -4
9 -3 12 2 7 5 -5 9 -13 9 -18 0 -5 10 -19 22 -31 12 -13 37 -40 54 -60 17 -21
35 -35 40 -32 5 3 8 2 7 -3 -4 -13 35 -53 45 -46 6 3 7 1 4 -4 -8 -13 17 -36
28 -25 5 4 5 2 2 -4 -7 -11 20 -41 32 -36 3 1 6 -1 6 -5 1 -18 18 -34 32 -29
8 3 12 2 9 -3 -8 -12 29 -43 39 -34 4 5 5 3 2 -3 -8 -15 38 -58 53 -49 6 4 9
1 8 -7 -2 -7 3 -12 10 -10 8 1 11 -2 8 -7 -4 -5 8 -20 26 -32 18 -13 40 -31
49 -41 10 -10 21 -17 25 -16 5 2 9 0 9 -3 0 -15 29 -39 41 -35 8 3 13 2 11 -3
-4 -14 62 -63 74 -55 7 4 9 3 6 -3 -4 -6 0 -16 8 -23 8 -7 15 -9 15 -5 0 5 8
-2 19 -13 10 -12 23 -22 30 -22 6 0 11 -5 11 -11 0 -5 5 -7 10 -4 6 3 10 2 10
-4 0 -13 89 -73 100 -66 5 3 12 0 16 -6 5 -8 2 -10 -7 -5 -8 4 -5 0 6 -8 11
-9 25 -14 32 -12 7 3 12 0 10 -7 -1 -7 6 -11 15 -11 10 1 16 -3 15 -10 -1 -6
6 -10 15 -10 10 1 15 -3 11 -9 -4 -6 0 -8 11 -4 9 4 15 3 12 -2 -8 -12 63 -53
76 -45 6 4 8 2 5 -3 -8 -12 20 -26 34 -17 5 3 8 0 7 -8 -2 -7 5 -12 14 -12 10
1 15 -2 12 -7 -3 -5 1 -10 8 -11 7 0 18 -2 24 -2 6 -1 19 -10 29 -19 18 -18
54 -36 66 -33 4 0 15 -6 25 -14 32 -27 71 -43 85 -35 8 6 10 4 4 -5 -6 -10 -4
-12 9 -7 9 4 15 3 12 -2 -7 -11 43 -33 56 -25 6 4 8 2 5 -3 -8 -13 50 -36 66
-26 6 4 7 1 2 -7 -6 -10 -4 -12 11 -6 10 4 15 4 11 0 -9 -9 52 -36 64 -28 5 3
9 0 9 -6 0 -6 4 -8 10 -5 5 3 10 1 10 -5 0 -7 6 -10 12 -8 7 3 19 -2 27 -9 7
-8 19 -12 27 -9 7 3 14 1 16 -4 2 -5 12 -11 23 -13 11 -2 28 -7 37 -11 9 -4
22 -5 28 -1 5 3 13 -1 16 -10 4 -10 14 -15 25 -12 11 3 17 1 13 -4 -3 -5 4
-10 15 -10 12 -1 27 -2 34 -3 6 -1 14 -4 17 -7 10 -12 70 -28 90 -24 11 2 18
0 15 -6 -4 -5 0 -9 7 -10 7 0 22 -3 33 -6 11 -3 32 -5 47 -6 16 0 25 -4 21
-10 -4 -6 2 -8 15 -5 12 3 23 1 24 -4 2 -6 22 -11 45 -12 23 0 39 -4 37 -8 -5
-7 27 -12 78 -12 9 0 15 -3 12 -8 -3 -4 10 -9 28 -10 37 -1 42 -2 78 -11 45
-12 185 -29 247 -31 22 -1 39 -5 36 -10 -3 -4 17 -6 46 -4 28 3 51 1 51 -3 0
-8 22 -9 373 -14 136 -2 247 -1 247 3 0 4 31 6 70 5 38 -1 70 2 70 5 0 4 25 5
55 4 30 -2 55 0 55 6 0 5 18 7 40 5 22 -2 40 0 40 4 0 5 16 7 36 5 22 -3 34
-1 31 5 -3 5 11 8 34 6 21 -2 39 0 39 5 0 4 17 8 38 9 20 1 45 2 55 3 9 1 17
5 17 10 0 5 6 7 13 5 14 -6 140 19 133 25 -2 3 15 6 37 7 23 2 43 7 45 12 2 5
12 7 22 4 12 -3 20 0 20 6 0 7 4 10 10 6 13 -8 61 5 54 16 -3 5 2 6 10 3 9 -3
24 -3 34 2 23 10 29 11 53 13 11 0 17 5 14 11 -3 5 0 7 9 4 8 -3 25 0 38 7 13
7 29 12 36 11 6 -2 12 1 12 6 0 6 6 9 13 9 23 -2 107 25 102 33 -3 5 3 6 13 3
11 -2 25 1 33 9 8 7 20 13 27 14 28 2 33 4 28 13 -4 5 3 7 14 4 11 -3 20 -1
20 4 0 5 10 9 22 10 11 1 24 7 28 13 4 7 10 11 14 11 25 -4 36 0 30 11 -4 7
-3 8 4 4 6 -4 22 -1 34 6 13 7 25 13 28 14 3 1 15 5 28 9 12 4 22 11 22 16 0
5 3 9 8 8 15 -2 52 14 52 22 0 5 3 8 8 7 15 -4 52 14 47 23 -3 5 1 6 9 3 9 -3
16 -1 16 5 0 6 3 10 8 10 20 -3 32 2 27 12 -4 6 -1 9 6 8 23 -5 60 12 53 23
-4 6 -2 8 4 5 14 -9 43 3 36 14 -3 5 -2 8 3 7 15 -4 53 13 48 22 -3 4 3 7 13
6 9 0 16 4 15 11 -2 7 3 10 11 7 8 -3 23 3 34 14 11 11 23 18 26 14 3 -3 6 0
6 7 0 7 5 9 10 6 6 -3 13 1 16 9 3 9 10 13 15 10 5 -3 21 8 36 23 14 15 22 22
18 14 -5 -8 10 -2 32 15 23 16 39 32 37 36 -3 4 2 5 10 2 9 -3 16 -1 16 5 0 6
5 11 11 11 20 0 109 72 102 82 -3 7 -1 8 5 4 14 -9 64 23 56 35 -3 5 0 8 8 7
7 -2 12 3 10 10 -1 8 2 11 8 7 13 -8 92 53 85 66 -4 5 0 6 8 3 9 -3 28 10 47
33 18 21 29 31 25 23 -5 -8 6 -2 23 14 17 16 30 34 29 39 -1 6 7 11 18 12 11
0 19 6 17 13 -1 8 1 11 6 8 12 -7 54 38 45 49 -5 4 -3 5 3 2 11 -7 56 37 48
47 -2 3 -1 4 2 1 11 -7 45 15 39 26 -4 5 -2 8 4 7 13 -4 102 93 95 104 -3 5 0
7 8 6 7 -2 12 3 10 10 -1 6 1 11 5 10 11 -4 79 62 75 73 -1 5 3 9 9 9 5 0 7 5
3 12 -4 6 -3 8 4 4 10 -6 26 10 27 26 0 3 4 10 9 15 5 5 6 2 2 -7 -8 -15 18
13 57 64 12 15 29 35 37 44 8 8 15 19 15 24 0 4 10 15 23 23 12 9 22 20 22 25
0 5 14 24 30 42 17 18 28 39 25 46 -3 7 -1 10 5 7 11 -7 32 30 22 40 -4 3 0 5
8 3 9 -2 14 4 14 14 -1 10 2 15 7 13 9 -6 31 29 24 39 -3 3 -2 4 2 1 9 -7 43
47 36 58 -3 6 -1 7 5 3 6 -3 16 7 24 24 7 16 17 30 21 30 5 0 5 5 2 10 -3 6
-1 10 4 10 6 0 11 7 11 15 0 8 3 15 8 15 12 0 42 61 35 72 -3 7 -1 8 5 4 7 -4
12 -1 12 8 0 9 5 16 11 16 6 0 8 7 5 17 -4 10 -4 14 0 10 9 -9 57 72 56 96 0
9 3 15 8 12 11 -7 22 24 13 37 -4 7 -1 8 7 3 10 -6 12 -4 6 11 -4 10 -4 15 0
11 10 -9 44 48 46 78 1 13 5 22 9 19 10 -6 20 26 12 38 -4 7 -1 8 7 3 10 -6
12 -4 7 9 -4 9 -3 15 2 12 11 -7 23 22 14 36 -4 7 -1 8 7 3 10 -6 12 -3 8 13
-4 14 -2 20 5 15 7 -4 8 0 4 11 -4 9 -3 15 2 12 11 -7 33 53 24 67 -3 5 -1 7
4 4 12 -8 26 20 17 34 -3 5 0 9 6 9 6 0 8 5 5 10 -3 6 -2 10 4 10 5 0 13 15
16 32 4 18 12 39 17 46 6 6 7 12 3 12 -4 0 -2 7 5 15 7 8 9 15 5 15 -4 0 -2 7
5 15 6 8 9 19 5 25 -3 5 -2 10 3 10 12 0 44 108 36 122 -5 7 -3 8 6 3 10 -6
12 -3 8 13 -4 12 -2 20 3 16 5 -3 10 3 11 13 2 31 3 36 27 110 12 40 20 77 16
83 -3 5 -1 10 5 10 7 0 10 7 7 15 -4 8 -2 17 4 21 6 3 8 12 5 19 -2 7 -1 16 4
21 5 5 11 25 13 44 2 19 8 43 12 53 4 9 5 24 1 32 -3 8 -1 15 4 15 5 0 9 8 9
18 0 9 3 37 7 62 4 25 7 57 8 73 1 15 4 27 7 27 6 0 11 44 13 117 0 22 4 39 7
37 7 -4 12 58 13 163 1 40 4 73 8 73 16 0 -4 742 -20 748 -4 1 -6 21 -4 43 3
24 0 39 -5 36 -5 -3 -8 11 -6 34 2 21 -1 39 -6 39 -5 0 -7 8 -4 18 2 9 -1 38
-7 62 -6 25 -13 67 -16 95 -2 27 -8 52 -12 55 -4 3 -8 23 -10 45 -1 22 -6 41
-11 43 -4 1 -6 14 -3 29 3 16 1 24 -5 20 -6 -4 -8 4 -5 20 4 19 2 24 -8 18 -9
-5 -11 -4 -6 4 9 15 -3 73 -14 66 -4 -3 -6 3 -3 13 2 10 -3 38 -12 62 -9 25
-17 50 -19 57 -1 7 -5 15 -8 19 -4 3 -4 12 -1 20 3 8 0 14 -6 14 -6 0 -8 7 -5
15 4 8 2 15 -2 15 -5 0 -10 12 -11 26 0 15 -6 30 -13 34 -6 4 -11 10 -11 14 4
25 -1 47 -12 58 -8 7 -12 19 -9 27 3 9 0 11 -8 6 -8 -5 -11 -4 -7 2 8 12 -14
84 -23 78 -4 -3 -8 1 -7 8 1 32 -4 48 -13 42 -6 -3 -7 1 -4 9 3 9 1 16 -6 16
-6 0 -9 4 -6 9 8 13 -19 62 -29 53 -5 -4 -5 -1 -1 6 5 7 -4 38 -19 70 -66 140
-80 167 -90 174 -5 4 -6 8 -2 8 9 0 -31 71 -46 81 -5 3 -8 9 -8 13 3 20 0 26
-9 21 -5 -3 -7 0 -4 9 3 8 -4 24 -15 35 -12 12 -21 23 -21 26 0 3 0 10 0 16 0
5 -6 7 -12 3 -7 -4 -10 -4 -6 1 8 9 -22 65 -35 65 -4 0 -6 4 -3 8 7 12 -49 93
-59 85 -4 -5 -5 -2 -1 5 8 14 -28 65 -39 54 -4 -4 -6 0 -4 8 5 22 -20 62 -33
54 -6 -4 -8 -3 -5 3 8 13 -41 85 -53 78 -6 -3 -7 1 -4 9 4 9 -1 18 -10 22 -9
3 -16 10 -16 16 0 18 -52 78 -63 71 -6 -3 -7 -1 -3 6 10 15 -13 43 -27 34 -5
-3 -7 -1 -4 4 4 6 -3 21 -14 34 -12 13 -28 34 -36 46 -8 13 -19 20 -24 17 -5
-3 -8 0 -7 8 2 7 -3 12 -10 10 -8 -1 -11 2 -8 7 4 5 -2 14 -11 20 -10 5 -18
13 -18 18 0 4 -3 7 -7 6 -5 -2 -7 1 -5 5 1 5 -12 22 -29 38 -16 16 -33 37 -37
47 -4 10 -12 15 -17 12 -6 -4 -9 -1 -8 7 2 7 -3 12 -10 10 -8 -1 -11 2 -8 7 8
12 -18 33 -29 23 -5 -4 -5 -2 -1 5 6 11 -10 28 -26 28 -5 0 -8 5 -9 10 -1 17
-31 45 -42 38 -5 -3 -7 -1 -4 4 8 13 -27 46 -37 36 -4 -5 -6 -1 -4 7 2 9 -4
14 -15 13 -10 0 -16 1 -13 4 8 8 -46 63 -57 56 -6 -3 -7 -1 -4 4 9 14 -19 37
-33 28 -6 -4 -9 -1 -8 7 2 7 -3 12 -10 10 -8 -1 -11 2 -8 6 3 5 -3 17 -14 27
-11 10 -20 15 -20 12 0 -4 -18 11 -40 33 -23 23 -46 38 -52 34 -7 -4 -8 -3 -4
4 8 13 -28 35 -39 24 -3 -4 -5 -2 -3 3 2 6 0 10 -3 10 -3 0 -17 12 -31 28 -14
15 -28 27 -32 27 -4 0 -14 7 -23 15 -8 8 -19 13 -24 9 -5 -3 -8 -2 -7 3 2 4
-1 10 -7 13 -11 5 -39 27 -60 48 -8 6 -16 12 -20 12 -4 0 -13 7 -22 15 -8 8
-20 12 -26 8 -7 -3 -9 -3 -5 2 11 11 -29 38 -44 29 -7 -4 -8 -3 -4 5 8 12 -32
33 -47 24 -4 -2 -6 1 -5 9 2 7 -5 12 -14 12 -10 -1 -16 3 -15 10 1 6 -4 10
-10 8 -7 -1 -13 2 -13 8 0 5 -6 10 -14 10 -8 0 -16 4 -18 9 -1 5 -10 11 -18
13 -8 2 -21 9 -28 16 -8 7 -18 9 -24 6 -6 -4 -8 -3 -5 3 8 13 -41 36 -55 27
-6 -4 -8 -3 -5 3 8 13 -70 56 -85 47 -7 -4 -8 -3 -4 4 5 8 0 12 -13 12 -12 0
-21 4 -21 9 0 9 -33 23 -58 25 -7 1 -16 6 -20 13 -10 16 -61 35 -74 27 -6 -4
-8 -2 -5 3 8 13 -20 26 -35 16 -6 -3 -8 -1 -5 4 7 12 -47 35 -57 26 -3 -4 -6
0 -6 7 0 7 -3 11 -6 7 -3 -3 -22 3 -41 14 -20 11 -42 18 -50 15 -8 -3 -12 -2
-9 2 7 12 -61 35 -75 26 -7 -4 -9 -3 -6 3 7 12 -62 35 -76 26 -6 -3 -7 -1 -3
5 4 7 1 13 -8 13 -25 2 -30 4 -43 12 -7 5 -17 5 -23 2 -5 -3 -10 -1 -10 5 0 7
-7 10 -15 6 -8 -3 -15 -2 -15 2 0 11 -89 34 -102 26 -7 -5 -8 -2 -3 6 6 10 4
12 -8 7 -9 -3 -19 -1 -23 4 -3 6 -15 9 -25 6 -12 -3 -17 -1 -12 6 4 6 -2 8
-15 5 -12 -3 -22 -2 -24 2 -2 5 -16 11 -33 14 -16 3 -49 10 -73 16 -24 6 -47
8 -52 5 -4 -3 -10 -1 -12 4 -3 8 -56 20 -114 25 -11 1 -25 5 -31 9 -6 4 -22 7
-34 6 -13 0 -45 4 -71 10 -26 6 -56 8 -67 6 -12 -2 -21 1 -21 6 0 6 -15 9 -33
8 -18 -2 -37 -1 -42 3 -6 3 -28 6 -50 7 -22 1 -72 4 -112 6 -40 2 -76 5 -80 8
-12 7 -541 5 -548 -1z"/>
</g>
</svg>
